<?xml version="1.0" encoding="UTF-8"?>
<svg xmlns="http://www.w3.org/2000/svg" xmlns:xlink="http://www.w3.org/1999/xlink" width="285pt" height="285pt" viewBox="0 0 285 285" version="1.1">
<g id="surface1">
<path style="fill-rule:nonzero;fill:rgb(100%,100%,100%);fill-opacity:1;stroke-width:20;stroke-linecap:round;stroke-linejoin:round;stroke:rgb(0%,0%,0%);stroke-opacity:1;stroke-miterlimit:10;" d="M 336.484375 99.515625 C 387.839844 150.871094 387.839844 234.128906 336.484375 285.484375 C 285.128906 336.839844 201.871094 336.839844 150.515625 285.484375 C 99.160156 234.128906 99.160156 150.871094 150.515625 99.515625 C 201.871094 48.160156 285.128906 48.160156 336.484375 99.515625 " transform="matrix(1,0,0,1,-100.5,-49.5)"/>
<path style="fill-rule:nonzero;fill:rgb(100%,100%,100%);fill-opacity:1;stroke-width:10;stroke-linecap:round;stroke-linejoin:round;stroke:rgb(0%,0%,0%);stroke-opacity:1;stroke-miterlimit:10;" d="M 207.238281 125.761719 C 217.585938 136.109375 217.585938 152.890625 207.238281 163.238281 C 196.890625 173.585938 180.109375 173.585938 169.761719 163.238281 C 159.414062 152.890625 159.414062 136.109375 169.761719 125.761719 C 180.109375 115.414062 196.890625 115.414062 207.238281 125.761719 " transform="matrix(1,0,0,1,-100.5,-49.5)"/>
<path style="fill-rule:nonzero;fill:rgb(100%,100%,100%);fill-opacity:1;stroke-width:10;stroke-linecap:round;stroke-linejoin:round;stroke:rgb(0%,0%,0%);stroke-opacity:1;stroke-miterlimit:10;" d="M 324.738281 146.761719 C 335.085938 157.109375 335.085938 173.890625 324.738281 184.238281 C 314.390625 194.585938 297.609375 194.585938 287.261719 184.238281 C 276.914062 173.890625 276.914062 157.109375 287.261719 146.761719 C 297.609375 136.414062 314.390625 136.414062 324.738281 146.761719 " transform="matrix(1,0,0,1,-100.5,-49.5)"/>
<path style="fill-rule:nonzero;fill:rgb(100%,100%,100%);fill-opacity:1;stroke-width:10;stroke-linecap:round;stroke-linejoin:round;stroke:rgb(0%,0%,0%);stroke-opacity:1;stroke-miterlimit:10;" d="M 262.238281 234.761719 C 272.585938 245.109375 272.585938 261.890625 262.238281 272.238281 C 251.890625 282.585938 235.109375 282.585938 224.761719 272.238281 C 214.414062 261.890625 214.414062 245.109375 224.761719 234.761719 C 235.109375 224.414062 251.890625 224.414062 262.238281 234.761719 " transform="matrix(1,0,0,1,-100.5,-49.5)"/>
<path style="fill:none;stroke-width:8;stroke-linecap:round;stroke-linejoin:round;stroke:rgb(0%,0%,0%);stroke-opacity:1;stroke-miterlimit:10;" d="M 229.304688 225.371094 L 217.476562 201.929688 " transform="matrix(1,0,0,1,-100.5,-49.5)"/>
<path style="fill-rule:nonzero;fill:rgb(0%,0%,0%);fill-opacity:1;stroke-width:8;stroke-linecap:butt;stroke-linejoin:miter;stroke:rgb(0%,0%,0%);stroke-opacity:1;stroke-miterlimit:10;" d="M 207.964844 183.074219 L 210.40625 205.5 L 224.550781 198.363281 Z " transform="matrix(1,0,0,1,-100.5,-49.5)"/>
<path style="fill:none;stroke-width:8;stroke-linecap:round;stroke-linejoin:round;stroke:rgb(0%,0%,0%);stroke-opacity:1;stroke-miterlimit:10;" d="M 219.511719 150.042969 L 242.679688 154.183594 " transform="matrix(1,0,0,1,-100.5,-49.5)"/>
<path style="fill-rule:nonzero;fill:rgb(0%,0%,0%);fill-opacity:1;stroke-width:8;stroke-linecap:butt;stroke-linejoin:miter;stroke:rgb(0%,0%,0%);stroke-opacity:1;stroke-miterlimit:10;" d="M 263.472656 157.898438 L 244.074219 146.386719 L 241.289062 161.980469 Z " transform="matrix(1,0,0,1,-100.5,-49.5)"/>
<path style="fill:none;stroke-width:30;stroke-linecap:round;stroke-linejoin:round;stroke:rgb(0%,0%,0%);stroke-opacity:1;stroke-miterlimit:10;" d="M 170.5 280 L 332.5 118 " transform="matrix(1,0,0,1,-100.5,-49.5)"/>
</g>
</svg>
