<?xml version="1.0" encoding="UTF-8"?>
<svg xmlns="http://www.w3.org/2000/svg" xmlns:xlink="http://www.w3.org/1999/xlink" width="270.182536pt" height="270.18256pt" viewBox="0 0 270.182536 270.18256" version="1.1">
<g id="surface1">
<path style=" stroke:none;fill-rule:nonzero;fill:rgb(100%,100%,100%);fill-opacity:1;" d="M 274.566406 133.121094 C 274.398438 210.875 211.234375 273.773438 133.480469 273.609375 C 55.722656 273.441406 -7.171875 210.273438 -7.007812 132.519531 C -6.84375 54.761719 56.324219 -8.132812 134.078125 -7.96875 C 211.832031 -7.800781 274.730469 55.363281 274.566406 133.121094 "/>
<path style=" stroke:none;fill-rule:nonzero;fill:rgb(96.469116%,52.938843%,7.058716%);fill-opacity:1;" d="M 267.753906 135.375 C 267.59375 209.371094 207.484375 269.222656 133.492188 269.066406 C 59.5 268.910156 -0.351562 208.796875 -0.195312 134.808594 C -0.0390625 60.8125 60.070312 0.960938 134.0625 1.117188 C 208.054688 1.273438 267.910156 61.382812 267.753906 135.375 "/>
<path style=" stroke:none;fill-rule:nonzero;fill:rgb(13.729858%,12.159729%,12.548828%);fill-opacity:1;" d="M 133.777344 135.089844 L 4.363281 169.769531 C 19.621094 226.839844 71.597656 268.933594 133.492188 269.066406 C 195.589844 269.199219 247.890625 227.054688 263.199219 169.769531 Z "/>
<path style=" stroke:none;fill-rule:nonzero;fill:rgb(100%,100%,100%);fill-opacity:1;" d="M 235.960938 133.035156 C 235.84375 189.472656 189.996094 235.125 133.5625 235.003906 C 77.128906 234.882812 31.476562 189.035156 31.59375 132.601562 C 31.714844 76.167969 77.5625 30.515625 133.996094 30.636719 C 190.429688 30.753906 236.082031 76.601562 235.960938 133.035156 "/>
<path style=" stroke:none;fill-rule:nonzero;fill:rgb(13.729858%,12.159729%,12.548828%);fill-opacity:1;" d="M 229.152344 133.023438 C 229.039062 185.695312 186.25 228.304688 133.574219 228.191406 C 80.902344 228.078125 38.292969 185.289062 38.40625 132.617188 C 38.519531 79.945312 81.308594 37.335938 133.984375 37.449219 C 186.652344 37.558594 229.261719 80.351562 229.152344 133.023438 "/>
<path style=" stroke:none;fill-rule:nonzero;fill:rgb(100%,100%,100%);fill-opacity:1;" d="M 222.339844 133.007812 C 222.234375 181.917969 182.5 221.484375 133.589844 221.378906 C 84.679688 221.273438 45.113281 181.539062 45.21875 132.628906 C 45.324219 83.722656 85.054688 44.15625 133.96875 44.257812 C 182.878906 44.363281 222.441406 84.101562 222.339844 133.007812 "/>
<path style=" stroke:none;fill-rule:nonzero;fill:rgb(13.729858%,12.159729%,12.548828%);fill-opacity:1;" d="M 150.621094 87.679688 C 150.601562 96.925781 143.089844 104.410156 133.839844 104.390625 C 124.589844 104.371094 117.109375 96.855469 117.128906 87.605469 C 117.144531 78.359375 124.660156 70.875 133.910156 70.894531 C 143.160156 70.914062 150.640625 78.433594 150.621094 87.679688 "/>
<path style=" stroke:none;fill-rule:nonzero;fill:rgb(13.729858%,12.159729%,12.548828%);fill-opacity:1;" d="M 133.828125 110.691406 C 121.703125 110.664062 111.871094 113.882812 111.863281 117.882812 L 111.789062 151.890625 C 116.628906 156.375 121.003906 167.933594 122.605469 181.847656 C 123.125 186.371094 123.300781 190.722656 123.175781 194.722656 L 144.703125 194.765625 C 144.59375 190.769531 144.789062 186.417969 145.328125 181.894531 C 146.917969 168.546875 151.0625 157.402344 155.683594 152.582031 L 155.757812 117.976562 C 155.765625 113.980469 145.945312 110.71875 133.828125 110.691406 "/>
<path style=" stroke:none;fill-rule:nonzero;fill:rgb(13.729858%,12.159729%,12.548828%);fill-opacity:1;" d="M 108.089844 102.0625 C 108.074219 108.835938 102.570312 114.316406 95.796875 114.304688 C 89.019531 114.289062 83.539062 108.785156 83.554688 102.011719 C 83.570312 95.234375 89.070312 89.753906 95.847656 89.765625 C 102.625 89.78125 108.101562 95.285156 108.089844 102.0625 "/>
<path style=" stroke:none;fill-rule:nonzero;fill:rgb(13.729858%,12.159729%,12.548828%);fill-opacity:1;" d="M 108.660156 154.417969 L 108.730469 121.105469 C 105.804688 119.789062 101.097656 118.929688 95.785156 118.917969 C 86.910156 118.898438 79.707031 121.253906 79.699219 124.183594 L 79.648438 149.09375 C 83.191406 152.378906 86.394531 160.84375 87.566406 171.03125 C 87.949219 174.347656 88.078125 177.535156 87.988281 180.464844 L 103.753906 180.496094 C 103.675781 177.566406 103.816406 174.382812 104.210938 171.070312 C 104.996094 164.472656 106.636719 158.617188 108.660156 154.417969 "/>
<path style=" stroke:none;fill-rule:nonzero;fill:rgb(13.729858%,12.159729%,12.548828%);fill-opacity:1;" d="M 184.132812 102.222656 C 184.117188 109 178.617188 114.476562 171.839844 114.464844 C 165.0625 114.453125 159.582031 108.945312 159.597656 102.171875 C 159.613281 95.398438 165.117188 89.914062 171.894531 89.929688 C 178.667969 89.945312 184.144531 95.449219 184.132812 102.222656 "/>
<path style=" stroke:none;fill-rule:nonzero;fill:rgb(13.729858%,12.159729%,12.548828%);fill-opacity:1;" d="M 171.832031 119.078125 C 166.519531 119.066406 161.808594 119.90625 158.878906 121.210938 L 158.808594 153.652344 C 161.007812 157.90625 162.796875 164.136719 163.613281 171.195312 C 163.992188 174.511719 164.121094 177.695312 164.03125 180.625 L 179.796875 180.660156 C 179.714844 177.730469 179.859375 174.546875 180.253906 171.230469 C 181.417969 161.457031 184.449219 153.292969 187.839844 149.761719 L 187.890625 124.414062 C 187.898438 121.484375 180.707031 119.097656 171.832031 119.078125 "/>
<path style=" stroke:none;fill-rule:nonzero;fill:rgb(13.729858%,12.159729%,12.548828%);fill-opacity:1;" d="M 76.855469 111 C 76.84375 116.113281 72.691406 120.246094 67.582031 120.234375 C 62.46875 120.222656 58.335938 116.074219 58.347656 110.960938 C 58.359375 105.851562 62.511719 101.714844 67.621094 101.726562 C 72.730469 101.738281 76.867188 105.890625 76.855469 111 "/>
<path style=" stroke:none;fill-rule:nonzero;fill:rgb(13.729858%,12.159729%,12.548828%);fill-opacity:1;" d="M 76.511719 152.265625 L 76.570312 125.054688 C 74.355469 124.238281 71.144531 123.722656 67.574219 123.714844 C 60.878906 123.703125 55.445312 125.480469 55.441406 127.6875 L 55.402344 146.480469 C 58.074219 148.957031 60.492188 155.34375 61.375 163.03125 C 61.664062 165.53125 61.761719 167.933594 61.691406 170.144531 L 73.585938 170.167969 C 73.527344 167.957031 73.632812 165.554688 73.929688 163.054688 C 74.417969 158.949219 75.347656 155.222656 76.511719 152.265625 "/>
<path style=" stroke:none;fill-rule:nonzero;fill:rgb(13.729858%,12.159729%,12.548828%);fill-opacity:1;" d="M 209.300781 111.28125 C 209.289062 116.394531 205.136719 120.527344 200.027344 120.515625 C 194.917969 120.503906 190.78125 116.355469 190.792969 111.242188 C 190.804688 106.136719 194.957031 102 200.066406 102.007812 C 205.179688 102.019531 209.3125 106.175781 209.300781 111.28125 "/>
<path style=" stroke:none;fill-rule:nonzero;fill:rgb(13.729858%,12.159729%,12.548828%);fill-opacity:1;" d="M 200.019531 123.996094 C 196.449219 123.988281 193.242188 124.496094 191.019531 125.296875 L 190.964844 151.722656 C 192.265625 154.804688 193.304688 158.832031 193.820312 163.3125 C 194.109375 165.8125 194.203125 168.214844 194.136719 170.425781 L 206.027344 170.449219 C 205.972656 168.238281 206.078125 165.835938 206.375 163.339844 C 207.253906 155.960938 209.542969 149.804688 212.097656 147.144531 L 212.136719 128.023438 C 212.144531 125.8125 206.71875 124.011719 200.019531 123.996094 "/>
</g>
</svg>
